HIERARCHY
ROOT Hips
{
  OFFSET 0 89.5177 0.535
  CHANNELS 6 Xposition Yposition Zposition Zrotation Xrotation Yrotation
  JOINT Spine
  {
    OFFSET 12.0259 -0.162855 1.69034e-005
    CHANNELS 3 Zrotation Xrotation Yrotation
    JOINT Spine1
    {
      OFFSET 15.3169 -0.0121922 0
      CHANNELS 3 Zrotation Xrotation Yrotation
      JOINT Spine2
      {
        OFFSET 15.3176 -0.0121908 0
        CHANNELS 3 Zrotation Xrotation Yrotation
        JOINT Neck
        {
          OFFSET 19.9142 1.56338 0
          CHANNELS 3 Zrotation Xrotation Yrotation
          JOINT Head
          {
            OFFSET 6.92651 0 0
            CHANNELS 3 Zrotation Xrotation Yrotation
            End Site
            {
              OFFSET 20.7666 0 0
            }
          }
          JOINT LeftShoulder
          {
            OFFSET -6.20654 0.708824 7.28219
            CHANNELS 3 Zrotation Xrotation Yrotation
            JOINT LeftArm
            {
              OFFSET 14.108 0 -1.52588e-005
              CHANNELS 3 Zrotation Xrotation Yrotation
              JOINT LeftForeArm
              {
                OFFSET 28.5802 0 0
                CHANNELS 3 Zrotation Xrotation Yrotation
                JOINT LeftHand
                {
                  OFFSET 27.092 0 0
                  CHANNELS 3 Zrotation Xrotation Yrotation
                  End Site
                  {
                    OFFSET 9.55928 -0.186424 0.145352
                  }
                }
              }
            }
          }
          JOINT RightShoulder
          {
            OFFSET -6.20654 0.708866 -7.28218
            CHANNELS 3 Zrotation Xrotation Yrotation
            JOINT RightArm
            {
              OFFSET 14.108 0 1.52588e-005
              CHANNELS 3 Zrotation Xrotation Yrotation
              JOINT RightForeArm
              {
                OFFSET 28.5802 0 0
                CHANNELS 3 Zrotation Xrotation Yrotation
                JOINT RightHand
                {
                  OFFSET 27.092 0 0
                  CHANNELS 3 Zrotation Xrotation Yrotation
                  End Site
                  {
                    OFFSET 9.55929 -0.186417 -0.145354
                  }
                }
              }
            }
          }
        }
      }
    }
  }
  JOINT LeftUpLeg
  {
    OFFSET 0.005 -0.535 8.837
    CHANNELS 3 Zrotation Xrotation Yrotation
    JOINT LeftLeg
    {
      OFFSET 39.9035 0 0
      CHANNELS 3 Zrotation Xrotation Yrotation
      JOINT LeftFoot
      {
        OFFSET 39.6689 0 0
        CHANNELS 3 Zrotation Xrotation Yrotation
        JOINT LeftToe
        {
          OFFSET 10.1624 13.6296 0
          CHANNELS 3 Zrotation Xrotation Yrotation
          End Site
          {
            OFFSET 8.38147 0 0
          }
        }
      }
    }
  }
  JOINT RightUpLeg
  {
    OFFSET 0.005 -0.535 -8.837
    CHANNELS 3 Zrotation Xrotation Yrotation
    JOINT RightLeg
    {
      OFFSET 39.9035 0 0
      CHANNELS 3 Zrotation Xrotation Yrotation
      JOINT RightFoot
      {
        OFFSET 39.6689 0 0
        CHANNELS 3 Zrotation Xrotation Yrotation
        JOINT RightToe
        {
          OFFSET 10.1624 13.6296 0
          CHANNELS 3 Zrotation Xrotation Yrotation
          End Site
          {
            OFFSET 8.38147 0 0
          }
        }
      }
    }
  }
}
MOTION
Frames:	17
Frame Time:	0.0333333
410.03 87.9963 -44.5659 175.202 -80.5154 84.7184 -1.66361 -0.422998 -0.937667 -3.33405 -0.818077 -1.8871 -3.33405 -0.818077 -1.88711 -8.30768e-012 -9.0191e-006 -5.27751e-005 15.9496 6.19103 -2.61945 177.071 -13.9973 -101.945 -8.8231 -53.7972 6.98163 -4.03376e-006 1.27222e-014 3.97569e-016 -40.3633 -24.5309 -26.4643 177.792 8.94082 103.932 78.8761 67.5612 -87.4414 -1.06557 3.97569e-016 1.98785e-016 -35.1491 12.7799 20.7241 -12.301 10.3404 -178.909 -20.1359 0 -1.19271e-015 17.5452 3.36947 -3.33298 90 -6.4605e-016 -1.59028e-015 -11.5307 -9.77912 -179.062 -18.8322 1.59028e-015 7.95139e-016 15.7267 0.0897445 -0.883745 90 0 -4.77083e-015 
409.95 87.949 -44.6087 174.579 -80.6418 84.3139 -1.61486 -0.447034 -0.99574 -3.23739 -0.8653 -2.00358 -3.23739 -0.865299 -2.00359 -8.30768e-012 -9.0191e-006 -5.27751e-005 16.3602 6.10528 -2.70398 177.087 -13.8572 -101.994 -9.04453 -53.9803 6.80531 -4.03376e-006 3.18055e-015 1.98785e-016 -40.1657 -24.606 -26.4347 177.767 8.93289 104.098 79.3639 67.71 -88.429 -1.06349 1.98785e-016 -1.98785e-016 -34.9541 12.771 20.6022 -12.0867 10.196 -179.205 -20.1261 1.59028e-015 1.19271e-015 17.5114 3.27585 -3.2378 90 9.93923e-017 1.59028e-015 -11.9477 -9.67573 -179.424 -19.916 0 7.95139e-016 16.1671 0.241334 -0.825696 90 7.45443e-017 -1.59028e-015 
409.887 87.9113 -44.6656 173.904 -80.8213 83.7877 -1.55746 -0.458423 -1.04722 -3.12318 -0.887675 -2.10642 -3.12318 -0.887674 -2.10643 -8.30768e-012 -9.0191e-006 -5.27751e-005 16.861 6.00346 -2.76727 177.06 -13.845 -102.112 -9.56405 -53.8485 6.63428 -4.03376e-006 -3.18055e-015 5.96354e-016 -39.9699 -24.7766 -26.367 177.748 8.86773 104.311 79.5564 67.8233 -89.0679 -1.13468 -1.98785e-016 2.98177e-016 -34.8286 12.6571 20.3678 -11.8578 10.0999 -179.406 -20.1738 0 -3.97569e-016 17.5324 3.2386 -3.19438 90 -2.23633e-016 -0 -12.3405 -9.52347 -179.693 -21.0872 0 -3.97569e-016 16.5952 0.424144 -0.953737 90 0 1.59028e-015 
409.83 87.9073 -44.7433 172.688 -80.9642 82.5711 -1.5085 -0.45765 -1.07405 -3.02545 -0.886324 -2.15968 -3.02545 -0.886324 -2.15969 -8.30768e-012 -9.0191e-006 -5.27751e-005 17.4904 5.83293 -2.71738 177.029 -13.7475 -102.32 -9.93649 -53.9482 6.72674 -4.03376e-006 -6.36111e-015 -0 -40.3508 -24.7531 -26.5511 177.718 8.79789 104.603 80.0242 67.7958 -89.7977 -1.28554 0 4.96962e-017 -34.9774 12.2889 20.2719 -11.5493 9.84853 -179.529 -19.9755 0 7.95139e-016 17.4307 3.11072 -2.96316 90 -6.4605e-016 3.18055e-015 -12.4751 -9.50366 -179.784 -21.7934 0 1.19271e-015 16.8234 0.536844 -1.172 90 0 3.18055e-015 
409.792 87.9336 -44.8209 170.57 -80.9016 80.3949 -1.49555 -0.48631 -1.08807 -3.00021 -0.943506 -2.18839 -3.00021 -0.943505 -2.1884 -8.30748e-012 -9.0191e-006 -5.27751e-005 18.0065 5.66021 -2.65025 176.975 -13.7456 -102.537 -10.3753 -54.4516 6.84791 -4.03376e-006 3.18055e-015 -7.95139e-016 -40.4262 -24.6413 -26.4949 177.661 8.84487 104.879 81.322 67.8041 -91.3456 -1.37835 -3.97569e-016 -4.96962e-017 -35.0903 11.9517 20.0161 -11.2661 9.42737 -179.642 -19.4316 -1.59028e-015 -1.59028e-015 17.1763 2.96832 -2.52783 90 -2.60905e-016 4.77083e-015 -12.4925 -9.69149 -179.8 -21.9778 -1.59028e-015 -3.97569e-016 16.8518 0.603644 -1.29639 90 4.96962e-017 -3.18055e-015 
409.768 87.9581 -44.9082 168.672 -80.7272 78.4636 -1.49859 -0.501015 -1.11273 -3.00679 -0.9722 -2.23811 -3.00679 -0.9722 -2.23812 -8.30768e-012 -9.0191e-006 -5.27751e-005 18.3232 5.57151 -2.52347 176.915 -13.693 -102.825 -10.4794 -55.1553 7.18201 -4.03376e-006 6.36111e-015 -0 -40.261 -24.3481 -26.1541 177.6 8.97116 105.043 81.836 67.7856 -92.0644 -1.69335 3.97569e-016 -0 -34.8167 11.801 19.6992 -11.2438 9.12657 -179.679 -19.1979 3.18055e-015 7.95139e-016 17.0774 2.97676 -2.52909 90 -7.33019e-016 1.59028e-015 -12.3896 -9.97809 -179.804 -21.7413 1.59028e-015 3.97569e-016 16.8124 0.616381 -1.31816 90 1.49089e-016 -1.59028e-015 
409.76 87.9547 -44.9793 167.589 -80.4597 77.3557 -1.52618 -0.509811 -1.13436 -3.06232 -0.988667 -2.28184 -3.06232 -0.988666 -2.28185 -8.30708e-012 -9.0191e-006 -5.27751e-005 18.6132 5.5233 -2.43 176.882 -13.6737 -102.978 -10.6014 -55.7683 7.24963 -4.03376e-006 -1.59028e-014 3.97569e-016 -40.2046 -23.91 -25.7964 177.557 9.0267 105.21 83.2194 67.7781 -93.4941 -1.74809 0 -1.98785e-016 -35.0475 11.5012 19.4749 -11.58 9.16131 -179.602 -19.4635 0 3.97569e-016 17.2366 3.16971 -2.89297 90 -6.83322e-016 -0 -12.3742 -10.213 -179.791 -21.4366 -3.18056e-015 -1.59028e-015 16.8167 0.604442 -1.296 90 -4.96962e-017 1.59028e-015 
409.758 87.9385 -45.0239 167.465 -80.1815 77.2472 -1.54533 -0.506184 -1.16618 -3.10081 -0.980167 -2.34553 -3.10081 -0.980167 -2.34554 -8.30728e-012 -9.0191e-006 -5.27751e-005 18.8148 5.63747 -2.34561 176.86 -13.5005 -103.223 -9.41945 -56.9692 8.15327 -7.95464e-006 3.18055e-015 3.97569e-016 -40.4643 -23.1548 -25.5435 177.575 8.97807 105.181 83.9399 67.5927 -94.1203 -2.20562 0 1.98785e-016 -35.5317 11.2857 19.1297 -11.9258 9.0579 -179.593 -19.6702 0 -3.97569e-016 17.3617 3.21754 -3.09119 90 -7.20594e-016 -4.77083e-015 -12.5943 -10.3247 -179.832 -21.4229 0 -0 16.8689 0.568282 -1.22128 90 4.96962e-017 1.59028e-015 
409.766 87.8998 -45.03 168.959 -79.8848 78.8327 -1.54992 -0.460739 -1.21444 -3.10939 -0.887896 -2.44081 -3.10939 -0.887896 -2.44082 -8.30828e-012 -9.0191e-006 -5.27751e-005 18.8563 5.69542 -2.13474 176.826 -13.2066 -103.643 -5.8908 -59.3454 11.0674 -0.0453229 3.18055e-015 1.98785e-016 -41.1874 -22.2845 -25.5368 177.671 8.87284 104.773 85.4468 67.3153 -95.3046 -2.67481 -4.96962e-017 1.98785e-016 -37.1848 11.2563 18.8049 -12.2976 9.25922 -179.63 -19.8457 4.77083e-015 1.98785e-015 17.5932 3.28957 -3.08448 90 1.27968e-015 1.59028e-015 -13.369 -10.047 -179.946 -22.221 1.59028e-015 -0 17.1427 0.645424 -1.37688 90 -1.49089e-016 4.77083e-015 
409.805 87.8061 -44.9849 171.97 -79.5579 82.1531 -1.55462 -0.394048 -1.31247 -3.11795 -0.751779 -2.63504 -3.11795 -0.751779 -2.63505 -8.30828e-012 -9.0191e-006 -5.27751e-005 18.9234 5.80738 -1.9039 176.77 -12.9836 -104.102 0.0389695 -61.0809 16.1484 -1.88038 -6.36111e-015 5.96354e-016 -43.1737 -22.2942 -26.9751 177.905 8.50858 103.89 86.2614 66.9152 -95.4884 -2.92762 -3.97569e-016 9.93923e-017 -39.8694 11.9484 19.4055 -12.7837 9.8993 -179.832 -20.2138 0 -3.97569e-016 18.1182 3.45804 -2.90825 90 7.20594e-016 -1.59028e-015 -14.9328 -9.5396 179.661 -24.2011 0 -0 17.6534 0.651031 -1.37249 90 -1.49089e-016 -0 
409.903 87.6394 -44.9189 176.073 -79.2916 86.5954 -1.54949 -0.294017 -1.43483 -3.1059 -0.548576 -2.87696 -3.1059 -0.548575 -2.87696 -8.30748e-012 -9.0191e-006 -5.27751e-005 19.3385 5.89345 -1.5347 176.852 -12.5367 -104.219 8.71302 -62.7923 23.4192 -3.91631 3.18055e-015 -0 -48.2208 -22.7032 -31.0443 178.281 7.93232 102.269 86.494 66.2721 -94.6298 -3.08817 5.96354e-016 7.45443e-017 -43.6717 13.4513 21.1218 -13.4708 10.9607 -179.925 -21.186 -1.59028e-015 -7.95139e-016 19.2545 3.78744 -2.58944 90 1.49089e-016 3.18055e-015 -17.2567 -8.87109 179.19 -27.646 3.18056e-015 -3.97569e-016 18.2557 0.611961 -1.24003 90 -9.93923e-017 1.59028e-015 
410.098 87.4269 -44.8816 -179.808 -79.1813 90.9867 -1.47522 -0.194076 -1.5395 -2.95513 -0.347926 -3.08333 -2.95513 -0.347926 -3.08334 -8.30708e-012 -9.0191e-006 -5.27751e-005 20.1559 5.80596 -1.2458 177.223 -12.0276 -103.105 17.1587 -63.8327 29.9685 -5.18433 -3.18055e-015 1.98785e-016 -55.3288 -23.1431 -38.314 178.726 7.58528 99.5645 85.2888 65.7484 -92.4248 -3.32412 0 5.96354e-016 -46.2649 16.0831 23.9277 -14.0244 11.9358 -179.881 -22.3364 4.77083e-015 1.59028e-015 20.4701 4.01106 -2.13424 90 -4.47266e-016 -1.59028e-015 -20.1087 -8.37669 178.695 -32.3973 -1.59028e-015 -7.95139e-016 18.504 0.373614 -0.799695 90 1.98785e-016 -3.18055e-015 
410.367 87.2464 -44.9212 -177.392 -79.1244 93.5698 -1.36001 -0.190203 -1.62434 -2.72488 -0.341264 -3.25258 -2.72488 -0.341263 -3.25259 -8.30669e-012 -9.0191e-006 -5.27751e-005 21.4272 5.68896 -1.21441 177.89 -11.1586 -100.778 23.5649 -63.3799 33.7168 -5.44579 3.18055e-015 -1.19271e-015 -62.072 -23.4418 -46.7685 179.279 7.05333 95.8481 77.763 64.9696 -84.2036 -3.49581 7.95139e-016 3.97569e-016 -47.731 20.0474 27.7703 -14.4202 12.6965 -179.688 -23.2678 1.59028e-015 -0 21.3313 4.19987 -1.92521 90 2.98177e-016 -1.59028e-015 -23.1196 -8.69275 178.185 -37.4901 1.59028e-015 7.95139e-016 18.2446 -0.163484 -0.970615 90 -3.97569e-016 -0 
410.745 87.1538 -45.0784 -176.114 -78.9927 94.7804 -1.22446 -0.253683 -1.65965 -2.45578 -0.471276 -3.32419 -2.45578 -0.471276 -3.3242 -8.30589e-012 -9.0191e-006 -5.27751e-005 22.7994 5.57016 -1.31449 178.699 -10.2895 -97.2475 26.4694 -60.9637 34.075 -5.02294 0 1.98785e-015 -66.4225 -24.6053 -54.8126 179.841 7.00066 91.3087 63.3634 61.8392 -70.7175 -4.73008 -3.18055e-015 -0 -49.1262 23.7404 31.5876 -14.6549 13.0622 -179.266 -23.7033 1.59028e-015 -0 21.8742 4.3205 -1.89079 90 -9.93923e-017 -0 -26.3067 -9.63667 177.71 -42.5079 1.59028e-015 -0 16.984 -0.740091 -1.2375 90 -3.97569e-016 1.59028e-015 
411.262 87.1473 -45.411 -175.196 -78.8791 95.302 -1.06728 -0.351675 -1.62588 -2.14416 -0.672401 -3.25793 -2.14416 -0.672401 -3.25794 -8.30828e-012 -9.0191e-006 -5.27751e-005 23.8298 5.45034 -1.37759 179.457 -9.80549 -93.1844 27.0968 -56.2168 33.4215 -4.24716 6.36111e-015 -1.59028e-015 -67.7432 -27.0633 -59.5969 -179.536 7.79449 86.5828 47.5552 54.1862 -58.1132 -7.81866 0 -1.59028e-015 -50.2406 27.8221 35.9657 -14.6584 13.321 -178.459 -23.7085 4.77083e-015 -0 22.1524 4.41495 -2.06206 90 4.96962e-017 -3.18055e-015 -29.3678 -10.9055 177.274 -46.8271 -1.59028e-015 7.95139e-016 14.7837 -0.913886 -1.38514 90 -1.19271e-015 1.59028e-015 
411.866 87.1551 -45.9072 -175.145 -78.7137 94.8234 -0.937301 -0.480816 -1.59149 -1.88768 -0.934886 -3.1906 -1.88768 -0.934885 -3.19061 -8.30669e-012 -9.0191e-006 -5.27751e-005 24.5784 5.36999 -1.15126 -179.891 -9.89322 -89.3646 25.8 -48.2309 33.1746 -3.78646 3.18055e-015 3.97569e-015 -66.011 -31.4008 -60.8541 -178.756 8.64368 81.7811 36.5734 43.3915 -51.216 -12.5957 3.18055e-015 1.19271e-015 -50.1115 33.9082 40.6515 -14.546 13.2627 -177.531 -23.4407 1.59028e-015 7.95139e-016 22.2067 4.3669 -2.25542 90 -9.93923e-017 3.18055e-015 -32.4058 -12.5618 176.399 -50.0233 3.18056e-015 -0 12.1943 -0.437689 -1.11691 90 -7.95139e-016 -0 
412.566 87.1274 -46.516 -175.221 -78.4091 94.2065 -0.829156 -0.520563 -1.51132 -1.67184 -1.01855 -3.03002 -1.67184 -1.01855 -3.03003 -8.30589e-012 -9.0191e-006 -5.27751e-005 25.2441 4.96994 -0.864843 -179.193 -10.4198 -85.5453 22.4782 -38.4373 34.2606 -3.5388 0 -7.95139e-016 -62.1916 -37.0832 -59.4452 -177.936 9.33987 77.4817 32.0063 33.7089 -50.1103 -17.1566 6.36111e-015 -5.96354e-016 -47.5236 40.7778 42.1169 -14.547 13.2279 -176.498 -23.2252 0 -0 22.3398 4.34091 -2.52238 90 4.96962e-017 -1.59028e-015 -35.2756 -14.0356 175.28 -51.567 -3.18056e-015 -2.38542e-015 9.86881 0.00778085 -0.620368 90 -7.95139e-016 -3.18055e-015 
